<svg width="16" height="16" viewBox="0 0 16 16" fill="none" xmlns="http://www.w3.org/2000/svg">
<path d="M15.6377 7.8773L8.84548 1.08863L8.39021 0.633357C8.28648 0.530308 8.14619 0.472473 7.99997 0.472473C7.85376 0.472473 7.71347 0.530308 7.60974 0.633357L0.36228 7.8773C0.255987 7.98318 0.171982 8.10928 0.115223 8.24816C0.0584644 8.38704 0.0301024 8.53588 0.0318111 8.6859C0.0388424 9.30465 0.553881 9.79859 1.17263 9.79859H1.9197V15.5238H14.0802V9.79859H14.8431C15.1437 9.79859 15.4267 9.68082 15.6394 9.46812C15.7442 9.36373 15.8271 9.2396 15.8836 9.10291C15.94 8.96623 15.9687 8.81971 15.9681 8.67183C15.9681 8.37301 15.8504 8.09 15.6377 7.8773V7.8773ZM8.98435 14.2582H7.0156V10.6722H8.98435V14.2582ZM12.8146 8.53297V14.2582H10.1093V10.2503C10.1093 9.86187 9.7947 9.54722 9.40622 9.54722H6.59372C6.20525 9.54722 5.8906 9.86187 5.8906 10.2503V14.2582H3.18533V8.53297H1.49783L8.00173 2.03433L8.40779 2.44039L14.5039 8.53297H12.8146Z" fill="#8C8C8C"/>
</svg>
